<?xml version="1.0" encoding="UTF-8"?>
<svg width="55px" height="72px" viewBox="0 0 55 72" version="1.1" xmlns="http://www.w3.org/2000/svg" xmlns:xlink="http://www.w3.org/1999/xlink">
    <!-- Generator: Sketch 62 (91390) - https://sketch.com -->
    <title>up-logo</title>
    <desc>Created with Sketch.</desc>
    <defs>
        <polygon id="path-1" points="0.00350324274 0.014362105 3.43127351 0.014362105 3.43127351 10.1794791 0.00350324274 10.1794791"></polygon>
    </defs>
    <g id="Favicon" stroke="none" stroke-width="1" fill="none" fill-rule="evenodd">
        <g id="Artboard" transform="translate(-34.000000, -28.000000)">
            <g id="up-logo" transform="translate(35.000000, 29.000000)">
                <g id="Login-AppLogo" transform="translate(16.477999, 18.413999)">
                    <g id="Group-8" transform="translate(14.591999, 38.975998)">
                        <g id="Page-1" transform="translate(0.311264, 2.581956)" fill="#00A19C" fill-rule="nonzero">
                            <path d="M11.4018015,0.0380204542 L12.5425292,2.62366991 L12.1622866,3.13874649 L2.83368168,1.74276195 C2.83368168,1.74276195 11.2116802,0.798505588 11.4018015,0.0380204542" id="Fill-1" opacity="0.703804348"></path>
                            <path d="M6.66017782,10.342594 C6.66017782,10.342594 9.57498648,9.69618168 10.1719955,8.93569656 C10.7690046,8.17521136 10.874359,7.54024433 6.66017782,7.83869672 C2.44599655,8.13718712 1.49780578,8.40335696 2.44599655,8.89767224 C3.39418734,9.3919876 5.00962349,10.5707396 6.66017782,10.342594" id="Fill-4" opacity="0.701879529"></path>
                            <path d="M0.260694304,1.82516052 L3.18856207,1.97725754 L12.6185778,3.1560095 L12.5425292,5.47548916 C12.5425292,5.47548916 6.87691497,5.05722234 0.41279133,6.12190153 C-0.41689795,6.2585607 0.260694304,1.82516052 0.260694304,1.82516052" id="Fill-6" opacity="0.482393569"></path>
                        </g>
                        <g id="Group-7" stroke-linecap="round" stroke-linejoin="round" transform="translate(0.055264, 0.019750)" stroke="#00A19C">
                            <path d="M10.9590382,2.68051384 C9.25806304,4.01390969 0.705788254,4.08422274 0.705788254,4.08422274" id="Stroke-7" stroke-width="0.8"></path>
                            <path d="M1.99982954,10.615553 C1.99982954,10.615553 9.10727112,9.60215544 10.5094299,10.615553" id="Stroke-9" stroke-width="0.8"></path>
                            <path d="M12.0824884,5.52821122 C10.1145666,6.01090454 0.886250672,3.86968453 0.886250672,3.86968453" id="Stroke-11" stroke-width="0.8"></path>
                            <path d="M0.349310878,8.421358 C0.349310878,8.421358 8.73229784,7.02957798 12.222536,7.78960906" id="Stroke-13" stroke-width="0.8"></path>
                            <path d="M12.5948778,6.33379141 C12.5948778,9.80863336 9.77798376,12.6255274 6.30314181,12.6255274 C2.82833702,12.6255274 0.0114058167,9.80863336 0.0114058167,6.33379141 C0.0114058167,2.85894946 2.82833702,0.0420182547 6.30314181,0.0420182547 C9.77798376,0.0420182547 12.5948778,2.85894946 12.5948778,6.33379141 Z" id="Stroke-17" stroke-width="0.921599944"></path>
                        </g>
                    </g>
                    <path d="M6.07112844,12.4091417 L4.69612855,24.1384413 C4.69612855,24.1384413 3.97568207,28.3411942 8.71017224,28.3411942 L14.4076398,28.3411942 C14.4076398,28.3411942 18.1943386,28.2668127 18.6169589,24.8322215 C18.8781152,22.7095096 19.4855592,16.3846945 19.7292514,14.0886999 C20.1349883,10.2667354 23.9659502,10.4475558 23.9659502,10.4475558 L31.5193379,10.4497652 C31.5193379,10.4497652 35.0104884,10.5517867 35.0104884,14.2338241 C33.8363236,24.8322215 33.8363236,24.8450025 33.8363236,24.8450025 C33.8363236,24.8450025 33.5761354,28.3411942 30.0264738,28.3411942 C28.5453736,28.3411942 27.485236,28.3411942 26.8460609,28.3411942 C25.9895315,28.3411942 23.4861564,27.9030898 22.3604986,31.1415762 C22.1279987,33.1739165 21.8416862,35.9661403 21.5015612,39.5182477" id="Stroke-19" stroke="#00A19C" stroke-width="4.30079974"></path>
                    <g id="Group-6" stroke-linecap="round" stroke-linejoin="round" stroke="#00A19C" stroke-width="0.921599944">
                        <path d="M12.5834757,6.29175829 C12.5834757,9.76660024 9.76658168,12.5835314 6.2917397,12.5835314 C2.81693492,12.5835314 3.7161702e-06,9.76660024 3.7161702e-06,6.29175829 C3.7161702e-06,2.81691634 2.81693492,2.22970202e-05 6.2917397,2.22970202e-05 C9.76658168,2.22970202e-05 12.5834757,2.81691634 12.5834757,6.29175829 Z" id="Stroke-1"></path>
                    </g>
                    <g id="Page-1" transform="translate(2.827125, 0.503156)">
                        <g id="Group-3" transform="translate(0.000000, 0.021265)">
                            <g id="Fill-1-Clipped">
                                <mask id="mask-2" fill="white">
                                    <use xlink:href="#path-1"></use>
                                </mask>
                                <g id="path-1"></g>
                                <path d="M6.89957507,6.73142338 C6.89957507,8.63590992 5.35604553,10.1794791 3.45151932,10.1794791 C1.54703278,10.1794791 0.00350324274,8.63590992 0.00350324274,6.73142338 C0.00350324274,4.82729392 2.91000448,2.36018581 3.45151932,0.014362105 C3.95260602,2.36018581 6.89957507,4.82729392 6.89957507,6.73142338" id="Fill-1" fill="#00A19C" fill-rule="nonzero" mask="url(#mask-2)"></path>
                            </g>
                        </g>
                        <g id="Group-6" transform="translate(0.000000, 0.060940)" fill="#00A19C" fill-opacity="0.5" fill-rule="nonzero">
                            <g id="Fill-4-Clipped">
                                <path d="M3.45151932,10.1836251 C1.54703278,10.1836251 0.00350324274,8.64009552 0.00350324274,6.73560902 C0.00350324274,4.83147956 2.91000448,2.36433178 3.45151932,0.0185477461 C3.65330293,0.963114032 4.33312246,1.87641695 4.8943951,2.86652936 C5.58433158,4.08353922 4.83897007,6.3195444 3.7429669,7.4593877 C6.02273286,6.75790599 6.01705942,4.47659274 6.1104131,3.95205851 C6.65486384,4.78835357 6.89957507,6.02155056 6.89957507,6.73560902 C6.89957507,8.64009552 5.35604553,10.1836251 3.45151932,10.1836251 Z" id="Fill-4"></path>
                            </g>
                        </g>
                    </g>
                </g>
                <g id="Page-1" stroke-linecap="round" stroke-linejoin="round" transform="translate(0.003500, 0.000000)" stroke="#00A19C" stroke-width="0.8">
                    <path d="M16.451823,31.7463952 C16.451823,31.7463952 11.8811192,28.7470834 12.8267082,22.7844618 C13.7722971,16.8217867 19.0247894,15.5224993 19.0247894,15.5224993" id="Stroke-1"></path>
                    <path d="M13.8470817,38.4410044 C13.8470817,38.4410044 5.33061988,32.8524932 7.09257626,21.7425996 C8.85453264,10.632706 18.641191,8.21183752 18.641191,8.21183752" id="Stroke-3"></path>
                    <path d="M10.6522874,46.0370626 C10.6522874,46.0370626 -2.31781805,37.526119 0.365511658,20.6064517 C3.04884136,3.68689158 17.953413,5.35744459e-06 17.953413,5.35744459e-06" id="Stroke-5"></path>
                </g>
            </g>
        </g>
    </g>
</svg>